<?xml version="1.0" encoding="UTF-8"?>
<svg id="Capa_1" data-name="Capa 1" xmlns="http://www.w3.org/2000/svg" viewBox="0 0 500 278.58">
  <circle cx="352.34" cy="167.59" r="8.53" style="fill: #006837;"/>
  <g>
    <circle cx="199.03" cy="226.75" r="50.33" style="fill: none; stroke: #006837; stroke-miterlimit: 10; stroke-width: 3px;"/>
    <circle cx="199.03" cy="174.71" r="50.33" style="fill: none; stroke: #006837; stroke-miterlimit: 10; stroke-width: 3px;"/>
    <circle cx="199.03" cy="121.98" r="50.33" style="fill: none; stroke: #006837; stroke-miterlimit: 10; stroke-width: 3px;"/>
    <line x1="199.03" y1="52.62" x2="199.03" y2="277.08" style="fill: none; stroke: #006837; stroke-miterlimit: 10; stroke-width: 2px;"/>
    <circle cx="199.03" cy="48.08" r="8.53" style="fill: #006837;"/>
    <circle cx="199.03" cy="28.13" r="8.53" style="fill: #006837;"/>
    <circle cx="199.03" cy="8.53" r="8.53" style="fill: #006837;"/>
    <path d="M198.83,229.42c14.42,5.9,9.89,28.19-.08,32.61-10.84-5.12-12.39-25.76.08-32.61Z" style="fill: #006837;"/>
    <path d="M225.84,251.76c6.35,14.22-12.32,27.21-22.59,23.52-4.3-11.19,8.84-27.18,22.59-23.52Z" style="fill: #006837;"/>
    <path d="M171.27,253.05c13.93-6.96,27.72,11.13,24.48,21.54-10.99,4.79-27.54-7.65-24.48-21.54Z" style="fill: #006837;"/>
  </g>
  <g>
    <path d="M54.18,188.88v12.24H12.95v26.62h33.27v12.24H12.95v24.71h41.23v12.36H0v-88.16h54.18Z" style="fill: #006837;"/>
    <path d="M134.38,269.56c-3.88,2.3-7.31,4-10.28,5.11-2.97,1.11-6.12,1.82-9.45,2.14-6.58.71-12.79.02-18.65-2.08-5.86-2.1-11.02-5.17-15.47-9.21s-7.98-8.85-10.58-14.44c-2.6-5.58-3.9-11.54-3.9-17.88s1.18-12.04,3.54-17.59c2.36-5.54,5.67-10.38,9.92-14.5,4.25-4.12,9.3-7.27,15.12-9.45,5.82-2.18,12.26-3.03,19.31-2.55,2.77.16,5.41.61,7.9,1.37,2.5.75,4.77,1.64,6.83,2.67l-5.7,11.41c-2.61-1.19-4.83-1.94-6.65-2.26-1.82-.32-3.88-.48-6.18-.48-4.12,0-8.06.85-11.82,2.55-3.76,1.7-7.07,3.98-9.92,6.83-2.85,2.85-5.13,6.16-6.83,9.92-1.71,3.76-2.56,7.7-2.56,11.82s.87,8.18,2.61,11.94c1.74,3.76,4.06,7.07,6.95,9.92,2.89,2.85,6.2,5.13,9.92,6.83,3.72,1.7,7.61,2.55,11.65,2.55,1.5,0,2.91-.06,4.22-.18,1.31-.12,2.61-.36,3.92-.71s2.65-.85,4.04-1.49c1.39-.63,2.95-1.46,4.69-2.49l7.37,10.22Z" style="fill: #006837;"/>
  </g>
  <g>
    <path d="M291.9,197.98h-26.12v-13.62h65.61v13.62h-25.87v79.1h-13.62v-79.1Z" style="fill: #35524a;"/>
    <path d="M358.76,277.08h-13.62v-92.73h13.62v92.73Z" style="fill: #35524a;"/>
    <path d="M401.62,184.35c1.67,0,3.6.06,5.81.19,2.21.12,4.46.46,6.75,1,2.29.54,4.54,1.44,6.75,2.69,2.21,1.25,4.19,3,5.94,5.25,1.75,2.25,3.14,5.15,4.19,8.69,1.04,3.54,1.56,7.85,1.56,12.93s-.52,9.37-1.56,12.87c-1.04,3.5-2.42,6.37-4.12,8.62-1.71,2.25-3.67,4-5.87,5.25-2.21,1.25-4.46,2.15-6.75,2.69-2.29.54-4.52.87-6.69,1-2.17.13-4.12.19-5.87.19h-14.37v31.37h-13.62v-92.73h27.87ZM396.37,232.09c2.5,0,5.1-.04,7.81-.12,2.71-.08,5.14-.63,7.31-1.62,2.17-1,3.96-2.67,5.37-5,1.41-2.33,2.12-5.75,2.12-10.25s-.71-7.91-2.12-10.25c-1.42-2.33-3.21-4-5.37-5-2.17-1-4.58-1.56-7.25-1.69-2.67-.13-5.25-.19-7.75-.19h-9.12v34.12h9Z" style="fill: #35524a;"/>
    <path d="M465.63,184.48c3.33,0,6.29.31,8.87.93,2.58.62,4.79,1.3,6.62,2.04,2.17.91,4.04,1.86,5.62,2.85l-7,11.92c-1.25-.75-2.62-1.41-4.12-2-1.25-.5-2.73-.98-4.44-1.44-1.71-.46-3.56-.69-5.56-.69-2.17,0-4,.37-5.5,1.12s-2.73,1.67-3.69,2.75c-.96,1.08-1.67,2.27-2.12,3.56-.46,1.29-.69,2.48-.69,3.56,0,3.17,1.14,5.52,3.43,7.06,2.29,1.54,5.15,2.79,8.6,3.75,3.45.96,7.17,1.9,11.15,2.81,3.99.92,7.71,2.31,11.15,4.19,3.45,1.87,6.31,4.5,8.6,7.87,2.28,3.37,3.43,8.02,3.43,13.93,0,3.83-.79,7.48-2.35,10.93-1.57,3.46-3.82,6.48-6.75,9.06-2.93,2.58-6.52,4.62-10.77,6.12-4.25,1.5-9.08,2.25-14.49,2.25-4.33,0-8.12-.43-11.37-1.3-3.25-.87-6.12-1.92-8.62-3.16-2.5-1.24-4.67-2.54-6.5-3.9s-3.46-2.5-4.87-3.41l7.12-11.98c4.91,3.92,9.5,6.58,13.75,8,4.25,1.42,7.75,2.12,10.5,2.12,2.5,0,4.98-.31,7.44-.94,2.45-.63,4.68-1.54,6.69-2.75,2-1.21,3.6-2.73,4.81-4.56,1.21-1.83,1.81-3.96,1.81-6.37,0-2.67-.67-4.83-2-6.5-1.33-1.67-3.08-3.06-5.25-4.19-2.17-1.12-4.65-2.04-7.44-2.75-2.79-.71-5.62-1.46-8.5-2.25-2.87-.79-5.71-1.73-8.5-2.81-2.79-1.08-5.27-2.52-7.44-4.31-2.17-1.79-3.92-4.04-5.25-6.75-1.33-2.71-2-6.06-2-10.06,0-4.75,1-8.73,3-11.94,2-3.21,4.37-5.75,7.12-7.62,2.75-1.87,5.56-3.21,8.44-4,2.87-.79,5.23-1.19,7.06-1.19Z" style="fill: #35524a;"/>
  </g>
</svg>